<mxfile host="65bd71144e">
    <diagram id="KLNsfBStBzfd9ylK537Z" name="Page-1">
        <mxGraphModel dx="2123" dy="456" grid="1" gridSize="10" guides="1" tooltips="1" connect="1" arrows="1" fold="1" page="1" pageScale="1" pageWidth="850" pageHeight="1100" math="0" shadow="0">
            <root>
                <mxCell id="0"/>
                <mxCell id="1" parent="0"/>
                <mxCell id="2" value="Host Machine" style="rounded=0;whiteSpace=wrap;html=1;fillColor=#f5f5f5;fontColor=#333333;strokeColor=#666666;shadow=1;sketch=1;verticalAlign=top;fontStyle=1;align=left;horizontal=1;" vertex="1" parent="1">
                    <mxGeometry x="60" y="30" width="710" height="290" as="geometry"/>
                </mxCell>
                <mxCell id="3" value="container app1&lt;br&gt;expose 8080" style="shape=cube;whiteSpace=wrap;html=1;boundedLbl=1;backgroundOutline=1;darkOpacity=0.05;darkOpacity2=0.1;shadow=1;sketch=1;fillColor=#e1d5e7;strokeColor=#9673a6;fontColor=#6600CC;fontStyle=1" vertex="1" parent="1">
                    <mxGeometry x="90" y="70" width="210" height="50" as="geometry"/>
                </mxCell>
                <mxCell id="4" value="container app2&lt;br&gt;expose 8080" style="shape=cube;whiteSpace=wrap;html=1;boundedLbl=1;backgroundOutline=1;darkOpacity=0.05;darkOpacity2=0.1;shadow=1;sketch=1;fillColor=#e1d5e7;strokeColor=#9673a6;fontColor=#6600CC;fontStyle=1;size=20;" vertex="1" parent="1">
                    <mxGeometry x="510" y="70" width="210" height="50" as="geometry"/>
                </mxCell>
                <mxCell id="18" style="edgeStyle=none;html=1;fontColor=#6600CC;endArrow=none;endFill=0;" edge="1" parent="1" source="5">
                    <mxGeometry relative="1" as="geometry">
                        <mxPoint x="421.74122772044484" y="148.393370507064" as="targetPoint"/>
                    </mxGeometry>
                </mxCell>
                <mxCell id="5" value="" style="shape=cylinder3;whiteSpace=wrap;html=1;boundedLbl=1;backgroundOutline=1;size=7;shadow=1;sketch=1;rotation=90;flipH=1;flipV=1;fillColor=#e1d5e7;strokeColor=#9673a6;" vertex="1" parent="1">
                    <mxGeometry x="490" y="70" width="20" height="50" as="geometry"/>
                </mxCell>
                <mxCell id="6" value="&lt;span&gt;172.28.0.3/16&lt;/span&gt;" style="text;html=1;strokeColor=none;fillColor=none;align=center;verticalAlign=middle;whiteSpace=wrap;rounded=0;shadow=1;sketch=1;fontColor=#6600CC;" vertex="1" parent="1">
                    <mxGeometry x="460" y="110" width="60" height="30" as="geometry"/>
                </mxCell>
                <mxCell id="19" style="edgeStyle=none;html=1;fontColor=#6600CC;endArrow=none;endFill=0;" edge="1" parent="1" source="7">
                    <mxGeometry relative="1" as="geometry">
                        <mxPoint x="374.95396298839796" y="146.987170390718" as="targetPoint"/>
                    </mxGeometry>
                </mxCell>
                <mxCell id="7" value="" style="shape=cylinder3;whiteSpace=wrap;html=1;boundedLbl=1;backgroundOutline=1;size=7;shadow=1;sketch=1;rotation=90;flipH=1;flipV=0;fillColor=#e1d5e7;strokeColor=#9673a6;" vertex="1" parent="1">
                    <mxGeometry x="300" y="70" width="20" height="50" as="geometry"/>
                </mxCell>
                <mxCell id="8" value="&lt;span&gt;172.28.0.2/16&lt;/span&gt;" style="text;html=1;strokeColor=none;fillColor=none;align=center;verticalAlign=middle;whiteSpace=wrap;rounded=0;shadow=1;sketch=1;fontColor=#6600CC;" vertex="1" parent="1">
                    <mxGeometry x="300" y="110" width="60" height="30" as="geometry"/>
                </mxCell>
                <mxCell id="25" style="edgeStyle=none;html=1;fontColor=#6600CC;endArrow=none;endFill=0;" edge="1" parent="1" target="14">
                    <mxGeometry relative="1" as="geometry">
                        <mxPoint x="365.00523305010347" y="164.55117833709824" as="sourcePoint"/>
                    </mxGeometry>
                </mxCell>
                <mxCell id="11" value="172.28.0.1/16" style="text;html=1;strokeColor=none;fillColor=none;align=center;verticalAlign=middle;whiteSpace=wrap;rounded=0;shadow=1;sketch=1;fontColor=#6600CC;" vertex="1" parent="1">
                    <mxGeometry x="369.94" y="190" width="60" height="30" as="geometry"/>
                </mxCell>
                <mxCell id="24" style="edgeStyle=none;html=1;fontColor=#6600CC;endArrow=none;endFill=0;" edge="1" parent="1" source="14">
                    <mxGeometry relative="1" as="geometry">
                        <mxPoint x="-10.01911436955561" y="163.92925408462702" as="targetPoint"/>
                    </mxGeometry>
                </mxCell>
                <mxCell id="14" value="en0" style="shape=cylinder3;whiteSpace=wrap;html=1;boundedLbl=1;backgroundOutline=1;size=7;shadow=1;sketch=1;rotation=90;flipH=1;flipV=1;fillColor=#e1d5e7;strokeColor=#9673a6;horizontal=0;" vertex="1" parent="1">
                    <mxGeometry x="57" y="125" width="30" height="70" as="geometry"/>
                </mxCell>
                <mxCell id="15" value="&lt;span&gt;10.58.1.234&lt;/span&gt;" style="text;html=1;strokeColor=none;fillColor=none;align=center;verticalAlign=middle;whiteSpace=wrap;rounded=0;shadow=1;sketch=1;fontColor=#6600CC;" vertex="1" parent="1">
                    <mxGeometry x="38" y="180" width="60" height="30" as="geometry"/>
                </mxCell>
                <mxCell id="17" value="eth0" style="text;html=1;strokeColor=none;fillColor=none;align=center;verticalAlign=middle;whiteSpace=wrap;rounded=0;shadow=1;sketch=1;fontColor=#6600CC;" vertex="1" parent="1">
                    <mxGeometry x="460" y="60" width="60" height="30" as="geometry"/>
                </mxCell>
                <mxCell id="20" value="eth0" style="text;html=1;strokeColor=none;fillColor=none;align=center;verticalAlign=middle;whiteSpace=wrap;rounded=0;shadow=1;sketch=1;fontColor=#6600CC;" vertex="1" parent="1">
                    <mxGeometry x="290" y="60" width="60" height="30" as="geometry"/>
                </mxCell>
                <mxCell id="21" value="alpine-net" style="text;html=1;strokeColor=none;fillColor=none;align=center;verticalAlign=middle;whiteSpace=wrap;rounded=0;shadow=1;sketch=1;fontColor=#6600CC;" vertex="1" parent="1">
                    <mxGeometry x="290" y="165" width="60" height="30" as="geometry"/>
                </mxCell>
                <mxCell id="22" value="8081" style="text;html=1;strokeColor=none;fillColor=none;align=center;verticalAlign=middle;whiteSpace=wrap;rounded=0;shadow=1;sketch=1;fontColor=#6600CC;" vertex="1" parent="1">
                    <mxGeometry x="320" y="80" width="60" height="30" as="geometry"/>
                </mxCell>
                <mxCell id="23" value="8082" style="text;html=1;strokeColor=none;fillColor=none;align=center;verticalAlign=middle;whiteSpace=wrap;rounded=0;shadow=1;sketch=1;fontColor=#6600CC;" vertex="1" parent="1">
                    <mxGeometry x="420" y="80" width="60" height="30" as="geometry"/>
                </mxCell>
                <mxCell id="26" value="" style="ellipse;shape=cloud;whiteSpace=wrap;html=1;shadow=1;sketch=1;fontColor=#6600CC;" vertex="1" parent="1">
                    <mxGeometry x="350" y="120" width="100" height="70" as="geometry"/>
                </mxCell>
                <mxCell id="27" value="" style="ellipse;shape=cloud;whiteSpace=wrap;html=1;shadow=1;sketch=1;fontColor=#6600CC;" vertex="1" parent="1">
                    <mxGeometry x="-100" y="130" width="100" height="70" as="geometry"/>
                </mxCell>
            </root>
        </mxGraphModel>
    </diagram>
</mxfile>